<svg xmlns="http://www.w3.org/2000/svg" xmlns:xlink="http://www.w3.org/1999/xlink" width="1080" zoomAndPan="magnify" viewBox="0 0 810 809.999993" height="1080" preserveAspectRatio="xMidYMid meet" version="1.0"><defs><clipPath id="2defe477bb"><path d="M 225 0 L 585 0 C 709.265625 0 810 100.734375 810 225 L 810 585 C 810 709.265625 709.265625 810 585 810 L 225 810 C 100.734375 810 0 709.265625 0 585 L 0 225 C 0 100.734375 100.734375 0 225 0 Z M 225 0 " clip-rule="nonzero"/></clipPath><clipPath id="21a40679f2"><path d="M 180.796875 225.359375 L 629.296875 225.359375 L 629.296875 584.609375 L 180.796875 584.609375 Z M 180.796875 225.359375 " clip-rule="nonzero"/></clipPath></defs><g clip-path="url(#2defe477bb)"><rect x="-81" width="972" fill="#0642dd" y="-80.999999" height="971.999992" fill-opacity="1"/></g><g clip-path="url(#21a40679f2)"><path fill="#f5fff9" d="M 388.3125 350.835938 L 487.359375 404.996094 L 388.3125 459.152344 L 334.152344 558.199219 L 279.996094 459.152344 L 180.925781 404.996094 L 279.972656 350.835938 L 334.132812 251.789062 Z M 545.175781 225.359375 L 515.519531 279.585938 L 461.289062 309.246094 L 515.519531 338.902344 L 545.175781 393.132812 L 574.835938 338.902344 L 629.0625 309.246094 L 574.835938 279.585938 Z M 545.175781 416.859375 L 515.519531 471.085938 L 461.289062 500.746094 L 515.519531 530.402344 L 545.175781 584.632812 L 574.835938 530.402344 L 629.0625 500.746094 L 574.835938 471.085938 Z M 545.175781 416.859375 " fill-opacity="1" fill-rule="nonzero"/></g></svg>