<svg xmlns="http://www.w3.org/2000/svg" xmlns:xlink="http://www.w3.org/1999/xlink" width="1080" zoomAndPan="magnify" viewBox="0 0 810 809.999993" height="1080" preserveAspectRatio="xMidYMid meet" version="1.0"><defs><clipPath id="376908f398"><path d="M 225 0 L 585 0 C 709.265625 0 810 100.734375 810 225 L 810 585 C 810 709.265625 709.265625 810 585 810 L 225 810 C 100.734375 810 0 709.265625 0 585 L 0 225 C 0 100.734375 100.734375 0 225 0 Z M 225 0 " clip-rule="nonzero"/></clipPath><clipPath id="9ccbdcfc47"><path d="M 173.222656 173.222656 L 636.722656 173.222656 L 636.722656 636.722656 L 173.222656 636.722656 Z M 173.222656 173.222656 " clip-rule="nonzero"/></clipPath></defs><g clip-path="url(#376908f398)"><rect x="-81" width="972" fill="#0642dd" y="-80.999999" height="971.999992" fill-opacity="1"/></g><g clip-path="url(#9ccbdcfc47)"><path fill="#f5fff9" d="M 588.933594 263.871094 C 558.070312 223.628906 514.09375 194.234375 465.109375 181.101562 C 445.699219 175.894531 425.566406 173.257812 405.273438 173.257812 C 374.5 173.257812 344.628906 179.164062 316.492188 190.820312 C 269.636719 210.222656 229.867188 245.09375 204.511719 289.007812 C 184.042969 324.164062 173.222656 364.246094 173.222656 404.914062 C 173.222656 445.585938 184.039062 485.652344 204.65625 521.027344 C 204.917969 521.359375 205.171875 521.722656 205.457031 522.199219 L 205.683594 522.53125 C 232.929688 569.007812 275.839844 604.691406 326.515625 623.007812 C 351.855469 632.160156 378.472656 636.738281 405.097656 636.738281 C 431.71875 636.738281 458.339844 632.160156 483.675781 623.007812 C 534.015625 604.816406 576.753906 569.429688 604.109375 523.207031 L 604.320312 522.746094 C 604.703125 522.03125 605.015625 521.574219 605.367188 521.089844 L 605.644531 520.675781 C 626.035156 485.710938 636.796875 445.679688 636.773438 404.917969 L 636.773438 402.789062 C 636.320312 352.835938 619.332031 303.496094 588.933594 263.871094 Z M 504.234375 458.335938 C 506.078125 440.65625 507.035156 422.679688 507.074219 404.898438 C 507.035156 387.113281 506.078125 369.148438 504.230469 351.5 L 503.660156 346.027344 L 509.058594 344.996094 C 533.71875 340.269531 557.71875 332.429688 580.386719 321.683594 L 585.925781 319.0625 L 588.421875 324.652344 C 599.769531 350.078125 605.523438 377.082031 605.523438 404.917969 C 605.523438 432.753906 599.769531 459.757812 588.421875 485.179688 L 585.925781 490.773438 L 580.398438 488.15625 C 557.710938 477.421875 533.710938 469.578125 509.0625 464.84375 L 503.664062 463.800781 Z M 243.90625 523.742188 L 239.539062 517.8125 L 246.234375 514.746094 C 264.945312 506.1875 284.652344 499.792969 304.808594 495.726562 L 310.820312 494.515625 L 311.890625 500.558594 C 316.925781 529.085938 325.867188 556.769531 338.46875 582.839844 L 345.191406 596.746094 L 330.851562 591.011719 L 330.855469 591.011719 C 296.140625 577.117188 266.074219 553.851562 243.90625 523.742188 Z M 330.863281 218.9375 L 345.308594 213.058594 L 338.507812 227.089844 C 325.878906 253.15625 316.917969 280.824219 311.882812 309.332031 L 310.8125 315.382812 L 304.792969 314.160156 C 284.617188 310.070312 264.917969 303.65625 246.230469 295.101562 L 239.710938 292.117188 L 244.144531 285.710938 L 244.191406 285.636719 C 244.496094 285.152344 244.8125 284.671875 245.160156 284.21875 C 246.433594 282.53125 247.8125 280.914062 249.1875 279.304688 C 249.855469 278.527344 250.523438 277.746094 251.167969 276.964844 C 254.339844 273.160156 257.769531 269.117188 261.425781 265.332031 C 263.503906 263.175781 265.6875 261.175781 267.609375 259.414062 L 268.847656 258.28125 C 272.308594 255.058594 276.019531 251.648438 280.089844 248.515625 C 282.398438 246.621094 285.003906 244.742188 287.292969 243.09375 L 288.28125 242.382812 C 292.085938 239.632812 296.121094 236.945312 300.269531 234.386719 C 303.234375 232.5625 306.238281 230.808594 309.238281 229.15625 C 313.152344 227.105469 317.722656 224.742188 322.347656 222.667969 C 325.132812 221.398438 327.972656 220.113281 330.863281 218.9375 Z M 336.316406 357.085938 L 336.875 350.921875 L 343.019531 351.683594 C 363.527344 354.226562 384.382812 355.578125 405.03125 355.699219 C 425.621094 355.582031 446.445312 354.226562 466.929688 351.683594 L 473.054688 350.921875 L 473.628906 357.070312 C 475.078125 372.683594 475.8125 388.785156 475.8125 404.921875 C 475.8125 420.777344 475.097656 436.433594 473.628906 452.78125 L 473.078125 458.902344 L 466.96875 458.1875 C 446.398438 455.796875 425.6875 454.601562 404.972656 454.601562 C 384.257812 454.601562 363.542969 455.796875 342.96875 458.1875 L 336.863281 458.902344 L 336.3125 452.78125 C 334.84375 436.429688 334.128906 420.773438 334.128906 404.921875 C 334.132812 389.035156 334.851562 373.390625 336.316406 357.085938 Z M 462.25 320.773438 C 424.398438 325.089844 385.546875 325.089844 347.707031 320.773438 L 341.273438 320.039062 L 342.503906 313.683594 C 355.1875 248.304688 380.292969 204.375 404.980469 204.375 C 429.667969 204.375 454.773438 248.304688 467.449219 313.683594 L 468.683594 320.039062 Z M 347.703125 489.074219 C 385.707031 484.742188 424.246094 484.738281 462.238281 489.074219 L 468.671875 489.804688 L 467.4375 496.160156 C 454.761719 561.539062 429.660156 605.464844 404.96875 605.464844 C 380.28125 605.464844 355.175781 561.539062 342.496094 496.160156 L 341.265625 489.804688 Z M 464.753906 596.75 L 471.488281 582.84375 C 484.097656 556.769531 493.039062 529.085938 498.066406 500.5625 L 499.132812 494.519531 L 505.144531 495.730469 C 525.28125 499.789062 544.988281 506.191406 563.714844 514.746094 L 570.414062 517.804688 L 566.050781 523.742188 C 543.886719 553.859375 513.820312 577.121094 479.097656 591.015625 Z M 563.667969 295.101562 C 544.949219 303.671875 525.246094 310.082031 505.097656 314.140625 L 499.082031 315.355469 L 498.019531 309.304688 C 493.003906 280.824219 484.085938 253.171875 471.503906 227.109375 L 464.808594 213.242188 L 479.109375 218.945312 L 479.113281 218.945312 C 481.976562 220.082031 484.761719 221.351562 487.5625 222.632812 C 492.472656 224.84375 496.8125 226.996094 500.824219 229.207031 C 503.761719 230.820312 506.652344 232.527344 509.523438 234.273438 C 513.757812 236.867188 517.929688 239.664062 521.9375 242.585938 C 524.785156 244.632812 527.347656 246.496094 529.902344 248.554688 C 533.363281 251.3125 537.019531 254.511719 541.402344 258.609375 L 543.457031 260.53125 C 545.140625 262.089844 546.820312 263.652344 548.460938 265.410156 C 552.136719 269.167969 555.59375 273.277344 559.121094 277.527344 L 560.871094 279.589844 C 562.136719 281.074219 563.414062 282.574219 564.601562 284.046875 C 565.042969 284.617188 565.371094 285.117188 565.699219 285.644531 L 570.375 292.035156 Z M 305.714844 351.515625 C 301.9375 386.953125 301.9375 422.890625 305.714844 458.320312 L 306.296875 463.800781 L 300.886719 464.84375 C 276.214844 469.570312 252.214844 477.410156 229.5625 488.148438 L 224.027344 490.777344 L 221.527344 485.183594 C 210.179688 459.761719 204.425781 432.757812 204.425781 404.921875 C 204.425781 377.082031 210.179688 350.078125 221.527344 324.660156 L 224.023438 319.074219 L 229.558594 321.691406 C 252.253906 332.421875 276.253906 340.265625 300.890625 345 L 306.300781 346.039062 Z M 305.714844 351.515625 " fill-opacity="1" fill-rule="nonzero"/></g></svg>