<svg xmlns="http://www.w3.org/2000/svg" xmlns:xlink="http://www.w3.org/1999/xlink" width="1080" zoomAndPan="magnify" viewBox="0 0 810 809.999993" height="1080" preserveAspectRatio="xMidYMid meet" version="1.0"><defs><clipPath id="d5e24b7071"><path d="M 225 0 L 585 0 C 709.265625 0 810 100.734375 810 225 L 810 585 C 810 709.265625 709.265625 810 585 810 L 225 810 C 100.734375 810 0 709.265625 0 585 L 0 225 C 0 100.734375 100.734375 0 225 0 Z M 225 0 " clip-rule="nonzero"/></clipPath></defs><g clip-path="url(#d5e24b7071)"><rect x="-81" width="972" fill="#0642dd" y="-80.999999" height="971.999992" fill-opacity="1"/></g><path fill="#f5fff9" d="M 543.359375 400.027344 C 543.359375 318.21875 481.148438 251.671875 404.652344 251.671875 C 328.183594 251.671875 265.941406 318.21875 265.941406 400.027344 C 265.941406 481.851562 328.167969 548.386719 404.652344 548.386719 C 481.148438 548.386719 543.359375 481.839844 543.359375 400.027344 Z M 289.34375 400.027344 C 289.34375 392.636719 290.0625 385.441406 291.199219 378.410156 C 299.636719 372.125 319.042969 357.539062 331.28125 346.707031 C 343.457031 351.644531 369.191406 359.949219 404.652344 359.949219 C 440.109375 359.949219 465.859375 351.644531 478.023438 346.707031 C 490.261719 357.554688 509.664062 372.125 518.117188 378.410156 C 519.253906 385.457031 519.972656 392.636719 519.972656 400.027344 C 519.972656 468.925781 468.25 525.015625 404.652344 525.015625 C 341.078125 525.003906 289.34375 468.925781 289.34375 400.027344 Z M 289.34375 400.027344 " fill-opacity="1" fill-rule="nonzero"/><path fill="#f5fff9" d="M 621.667969 366.394531 C 615.847656 352.136719 606.945312 342.816406 595.183594 338.71875 C 584.292969 334.917969 573.863281 336.757812 566.863281 339.015625 C 544.242188 264.835938 481.058594 212.742188 404.652344 212.742188 C 328.273438 212.742188 265.089844 264.835938 242.4375 339 C 235.453125 336.757812 225.023438 334.917969 214.117188 338.703125 C 202.371094 342.785156 193.453125 352.109375 187.636719 366.378906 C 176.878906 392.773438 182.144531 431.433594 199.589844 454.398438 C 210.121094 468.222656 224.394531 475.613281 240.3125 475.613281 C 242.347656 475.613281 244.398438 475.496094 246.492188 475.269531 C 252.375 474.566406 256.816406 469.570312 256.816406 463.644531 L 256.816406 400.027344 C 256.816406 308.121094 321.765625 236.15625 404.652344 236.15625 C 487.566406 236.15625 552.5 308.136719 552.5 400.027344 L 552.5 463.644531 C 552.5 465.605469 553.113281 467.386719 553.980469 469.015625 C 545.304688 490.785156 514.753906 551.949219 441.292969 567.820312 C 438.042969 564.109375 433.316406 561.71875 427.992188 561.71875 L 381.324219 561.71875 C 371.542969 561.71875 363.582031 569.660156 363.582031 579.492188 C 363.582031 589.277344 371.527344 597.234375 381.324219 597.234375 L 427.992188 597.234375 C 436.609375 597.234375 443.804688 591.070312 445.390625 582.886719 C 523.371094 565.503906 557.617188 500.359375 568.015625 475.585938 C 568.328125 475.585938 568.671875 475.644531 569.003906 475.644531 C 584.90625 475.644531 599.195312 468.253906 609.710938 454.429688 C 627.171875 431.433594 632.425781 392.773438 621.667969 366.394531 Z M 621.667969 366.394531 " fill-opacity="1" fill-rule="nonzero"/></svg>