<svg xmlns="http://www.w3.org/2000/svg" xmlns:xlink="http://www.w3.org/1999/xlink" width="342" zoomAndPan="magnify" viewBox="0 0 256.5 107.999999" height="144" preserveAspectRatio="xMidYMid meet" version="1.0"><defs><g/></defs><g fill="#000000" fill-opacity="1"><g transform="translate(0.011696, 90.532122)"><g><path d="M 6.4375 0 L 6.4375 -66.609375 L 15.921875 -66.609375 L 52.578125 -17.25 L 47.65625 -16.265625 L 47.65625 -66.609375 L 59.8125 -66.609375 L 59.8125 0 L 50.25 0 L 14.125 -49.703125 L 18.59375 -50.6875 L 18.59375 0 Z M 6.4375 0 "/></g></g></g><g fill="#000000" fill-opacity="1"><g transform="translate(66.259924, 90.532122)"><g><path d="M 29.234375 1.078125 C 24.460938 1.078125 20.125 -0.0234375 16.21875 -2.234375 C 12.320312 -4.441406 9.222656 -7.453125 6.921875 -11.265625 C 4.628906 -15.078125 3.484375 -19.425781 3.484375 -24.3125 C 3.484375 -29.207031 4.628906 -33.5625 6.921875 -37.375 C 9.222656 -41.1875 12.3125 -44.191406 16.1875 -46.390625 C 20.0625 -48.597656 24.410156 -49.703125 29.234375 -49.703125 C 34.003906 -49.703125 38.328125 -48.597656 42.203125 -46.390625 C 46.078125 -44.191406 49.160156 -41.195312 51.453125 -37.40625 C 53.742188 -33.625 54.890625 -29.257812 54.890625 -24.3125 C 54.890625 -19.425781 53.726562 -15.078125 51.40625 -11.265625 C 49.082031 -7.453125 45.984375 -4.441406 42.109375 -2.234375 C 38.234375 -0.0234375 33.941406 1.078125 29.234375 1.078125 Z M 29.234375 -9.65625 C 31.859375 -9.65625 34.164062 -10.28125 36.15625 -11.53125 C 38.15625 -12.78125 39.734375 -14.519531 40.890625 -16.75 C 42.054688 -18.988281 42.640625 -21.507812 42.640625 -24.3125 C 42.640625 -27.175781 42.054688 -29.695312 40.890625 -31.875 C 39.734375 -34.050781 38.15625 -35.78125 36.15625 -37.0625 C 34.164062 -38.34375 31.859375 -38.984375 29.234375 -38.984375 C 26.554688 -38.984375 24.203125 -38.34375 22.171875 -37.0625 C 20.148438 -35.78125 18.554688 -34.050781 17.390625 -31.875 C 16.222656 -29.695312 15.640625 -27.175781 15.640625 -24.3125 C 15.640625 -21.507812 16.222656 -18.988281 17.390625 -16.75 C 18.554688 -14.519531 20.148438 -12.78125 22.171875 -11.53125 C 24.203125 -10.28125 26.554688 -9.65625 29.234375 -9.65625 Z M 29.234375 -9.65625 "/></g></g></g><g fill="#000000" fill-opacity="1"><g transform="translate(124.551204, 90.532122)"><g><path d="M 28.515625 1.078125 C 23.515625 1.078125 19.132812 -0.0507812 15.375 -2.3125 C 11.625 -4.582031 8.703125 -7.65625 6.609375 -11.53125 C 4.523438 -15.40625 3.484375 -19.695312 3.484375 -24.40625 C 3.484375 -29.289062 4.539062 -33.625 6.65625 -37.40625 C 8.769531 -41.195312 11.660156 -44.191406 15.328125 -46.390625 C 18.992188 -48.597656 23.09375 -49.703125 27.625 -49.703125 C 31.4375 -49.703125 34.785156 -49.078125 37.671875 -47.828125 C 40.566406 -46.578125 43.023438 -44.847656 45.046875 -42.640625 C 47.078125 -40.441406 48.628906 -37.925781 49.703125 -35.09375 C 50.773438 -32.257812 51.3125 -29.203125 51.3125 -25.921875 C 51.3125 -25.085938 51.265625 -24.222656 51.171875 -23.328125 C 51.085938 -22.441406 50.925781 -21.671875 50.6875 -21.015625 L 13.140625 -21.015625 L 13.140625 -29.953125 L 44.078125 -29.953125 L 38.53125 -25.75 C 39.070312 -28.488281 38.9375 -30.929688 38.125 -33.078125 C 37.320312 -35.222656 36.007812 -36.921875 34.1875 -38.171875 C 32.375 -39.421875 30.1875 -40.046875 27.625 -40.046875 C 25.175781 -40.046875 23 -39.4375 21.09375 -38.21875 C 19.1875 -37 17.738281 -35.210938 16.75 -32.859375 C 15.769531 -30.503906 15.398438 -27.65625 15.640625 -24.3125 C 15.398438 -21.332031 15.800781 -18.695312 16.84375 -16.40625 C 17.894531 -14.113281 19.445312 -12.335938 21.5 -11.078125 C 23.5625 -9.828125 25.929688 -9.203125 28.609375 -9.203125 C 31.296875 -9.203125 33.578125 -9.769531 35.453125 -10.90625 C 37.328125 -12.039062 38.800781 -13.5625 39.875 -15.46875 L 49.359375 -10.8125 C 48.398438 -8.488281 46.90625 -6.429688 44.875 -4.640625 C 42.851562 -2.859375 40.457031 -1.457031 37.6875 -0.4375 C 34.914062 0.570312 31.859375 1.078125 28.515625 1.078125 Z M 28.515625 1.078125 "/></g></g></g><g fill="#000000" fill-opacity="1"><g transform="translate(179.266333, 90.532122)"><g><path d="M 5.453125 0 L 5.453125 -67.6875 L 17.171875 -67.6875 L 17.171875 0 Z M 5.453125 0 "/></g></g></g><g fill="#000000" fill-opacity="1"><g transform="translate(201.79608, 90.532122)"><g><path d="M 4.375 0 L 4.375 -48.640625 L 16.09375 -48.640625 L 16.09375 0 Z M 4.46875 -57.21875 L 10.28125 -72.6875 L 25.46875 -72.6875 L 16 -57.21875 Z M 4.46875 -57.21875 "/></g></g></g><g fill="#2563eb" fill-opacity="1"><g transform="translate(222.187973, 90.532122)"><g><path d="M 11 0 L 11 -12.515625 L 22.796875 -12.515625 L 22.796875 0 Z M 11 0 "/></g></g></g></svg>